<svg xmlns="http://www.w3.org/2000/svg" width="800" height="800" viewBox="0 0 600 600"><path d="M399.094 300c-15.844 0-30.75-8.438-38.813-21.938L300 178.125l-60.188 99.938c-8.156 13.593-23.062 22.03-38.906 22.03-4.219 0-8.437-.562-12.469-1.78L60 261.563v166.875c0 13.78 9.375 25.78 22.688 29.062l202.687 50.719c9.563 2.344 19.594 2.344 29.063 0L517.313 457.5C530.625 454.125 540 442.125 540 428.437V261.563L411.562 298.22c-4.03 1.219-8.25 1.781-12.468 1.781Zm199.312-105.188-48.281-96.375c-2.906-5.812-9.188-9.187-15.656-8.343L300 120l85.969 142.594c3.562 5.906 10.687 8.719 17.344 6.844l185.53-52.97c9.282-2.718 13.782-13.03 9.563-21.655ZM49.875 98.438 1.594 194.814c-4.313 8.625.281 18.937 9.469 21.562l185.53 52.969c6.657 1.875 13.782-.938 17.345-6.844L300 120 65.437 90.094c-6.468-.75-12.656 2.531-15.562 8.344Zm0 0" style="stroke:none;fill-rule:nonzero;fill:#000;fill-opacity:1"/></svg>