<svg xmlns="http://www.w3.org/2000/svg" xmlns:xlink="http://www.w3.org/1999/xlink" width="800" height="800" viewBox="0 0 600 600"><defs><clipPath id="b"><path d="M0 0h600v600H0z"/></clipPath><clipPath id="c"><path d="M0 0h600v600H0z"/></clipPath><clipPath id="d"><path d="M0 0h600v600H0z"/></clipPath><mask id="f"><g filter="url(#a)"><path d="M0 0h600v600H0z" style="fill:#000;fill-opacity:.101961;stroke:none"/></g></mask><mask id="h"><g filter="url(#a)"><path d="M0 0h600v600H0z" style="fill:#000;fill-opacity:.101961;stroke:none"/></g></mask><mask id="j"><g filter="url(#a)"><path d="M0 0h600v600H0z" style="fill:#000;fill-opacity:.101961;stroke:none"/></g></mask><g id="e" clip-path="url(#b)"><path d="M531.457 530.152c-57.723-41.562-75.027-116.586-147.855-173.511l-38.747 38.746c72.829 56.925 90.133 131.949 147.856 173.511 57.723 41.563 84.277 8.086 84.277 8.086s10.68-8.476 12.485-26.257c-13.696 1.382-32.907-2.497-58.016-20.575Zm0 0" style="stroke:none;fill-rule:nonzero;fill:#000;fill-opacity:1"/></g><g id="g" clip-path="url(#c)"><path d="M334.75 362.695c-14.371-14.37-14.71-38.484-2.684-59.687-5.793 3.285-11.37 7.488-16.468 12.586-23.77 23.765-28.203 57.867-9.907 76.16 18.293 18.297 52.391 13.86 76.16-9.906 5.098-5.102 9.301-10.68 12.587-16.473-21.204 12.031-45.32 11.691-59.688-2.68Zm0 0" style="stroke:none;fill-rule:nonzero;fill:#000;fill-opacity:1"/></g><g id="i" clip-path="url(#d)"><path d="M149.18 310.727c-55.313-55.309-55.313-144.985 0-200.293 22.715-22.715 51.226-36.094 80.773-40.149-42.394-5.824-86.926 7.555-119.52 40.149-55.312 55.308-55.308 144.984 0 200.293 32.594 32.593 77.122 45.972 119.52 40.152-29.547-4.059-58.058-17.438-80.773-40.152Zm0 0" style="stroke:none;fill-rule:nonzero;fill:#000;fill-opacity:1"/></g><filter id="a" width="100%" height="100%" x="0%" y="0%" filterUnits="objectBoundingBox"><feColorMatrix in="SourceGraphic" values="0 0 0 0 1 0 0 0 0 1 0 0 0 0 1 0 0 0 1 0"/></filter></defs><path d="M395.387 344.855c56.925 72.825 131.949 90.133 173.511 147.852 41.563 57.727 8.086 84.277 8.086 84.277s-26.55 33.477-84.277-8.086c-57.723-41.562-75.027-116.586-147.852-173.515Zm0 0" style="stroke:none;fill-rule:nonzero;fill:#515262;fill-opacity:1"/><use xlink:href="#e" mask="url(#f)"/><path d="M315.586 315.598c-23.77 23.77-28.203 57.867-9.91 76.16 18.297 18.297 52.394 13.86 76.164-9.906 23.765-23.77 28.203-57.868 9.906-76.164-18.293-18.293-52.394-13.856-76.16 9.91Zm0 0" style="stroke:none;fill-rule:nonzero;fill:#b4bbcc;fill-opacity:1"/><use xlink:href="#g" mask="url(#h)"/><path d="M410.887 210.586c0-110.621-89.68-200.3-200.301-200.3-110.621 0-200.297 89.679-200.297 200.3 0 110.621 89.676 200.297 200.297 200.297s200.3-89.676 200.3-200.297Zm0 0" style="stroke:none;fill-rule:nonzero;fill:#7dd2f0;fill-opacity:1"/><path d="M352.215 210.586c0-78.219-63.41-141.629-141.63-141.629-78.218 0-141.628 63.41-141.628 141.629s63.41 141.629 141.629 141.629 141.629-63.41 141.629-141.63Zm0 0" style="stroke:none;fill-rule:nonzero;fill:#e6e6e6;fill-opacity:1"/><path d="M301.984 210.586c0-38.063-40.921-68.918-91.398-68.918s-91.395 30.855-91.395 68.918c0 38.062 40.918 68.918 91.395 68.918 50.476 0 91.398-30.856 91.398-68.918Zm0 0" style="stroke:none;fill-rule:nonzero;fill:#fff;fill-opacity:1"/><use xlink:href="#i" mask="url(#j)"/><path d="M257.984 354.96c22.856-7.448 43.114-19.897 60.22-37 59.226-59.23 59.226-155.597 0-214.823-28.692-28.692-66.84-44.492-107.415-44.492-40.574 0-78.719 15.796-107.41 44.492-59.227 59.226-59.227 155.593 0 214.82 28.414 28.418 67.367 44.484 107.492 44.484 1.5 0 3.004-.023 4.508-.066 5.672-.172 10.129-4.906 9.96-10.582-.171-5.668-4.937-10.133-10.577-9.957-36.621 1.113-70.989-12.54-96.856-38.406-51.215-51.215-51.215-134.547 0-185.762 24.809-24.813 57.793-38.477 92.883-38.477 35.086 0 68.07 13.664 92.883 38.477 51.215 51.215 51.215 134.547 0 185.762-14.793 14.793-32.309 25.558-52.059 31.996-5.394 1.758-8.343 7.558-6.586 12.953 1.762 5.394 7.559 8.344 12.957 6.582Zm0 0" style="stroke:none;fill-rule:nonzero;fill:#000;fill-opacity:1"/><path d="M312.465 210.547c0-43.664-45.61-79.188-101.676-79.188-56.062 0-101.676 35.524-101.676 79.188 0 43.668 45.614 79.191 101.676 79.191 56.066 0 101.676-35.523 101.676-79.191Zm-101.676 58.64c-44.734 0-81.129-26.304-81.129-58.64s36.395-58.64 81.13-58.64c44.733 0 81.128 26.304 81.128 58.64s-36.395 58.64-81.129 58.64Zm0 0" style="stroke:none;fill-rule:nonzero;fill:#000;fill-opacity:1"/><path d="M242.793 210.543c0-17.672-14.328-31.996-32-31.996s-32 14.324-32 31.996c0 17.676 14.328 32 32 32s32-14.324 32-32Zm0 0" style="stroke:none;fill-rule:nonzero;fill:#000;fill-opacity:1"/><path d="M577.445 486.672c-11.484-15.95-25.77-29.879-46.312-45.156-4.555-3.387-10.992-2.442-14.38 2.113-3.386 4.55-2.437 10.988 2.114 14.375 18.778 13.965 31.7 26.508 41.903 40.676 34.25 47.57 11.703 68.757 9.984 70.261-.746.559-1.016.829-1.57 1.57-1.5 1.72-22.692 24.266-70.266-9.984-26.254-18.906-44.29-46.074-63.383-74.836-17.422-26.246-36.887-55.566-65.183-82.16 6.933-3.902 13.234-8.816 18.902-14.39.023-.02.043-.04.062-.059.032-.031.059-.062.09-.094a89.025 89.025 0 0 0 11.29-13.86c.3-.46 3.296-4.78 3.062-5.026 26.597 28.304 55.918 47.77 82.168 65.195l.117.078c4.727 3.14 11.105 1.852 14.242-2.879 3.137-4.726 1.852-11.101-2.879-14.242l-.117-.078c-28.926-19.203-58.789-39.067-85.363-69.719 3.762-17.785.367-35.398-10.735-47.969 36.809-78.113 22.98-174.355-41.503-238.84C326.707 28.66 284.89 7.977 238.766 1.828c-44.637-5.95-90.805 2.73-129.993 24.45-4.96 2.75-6.753 9.003-4.003 13.964 2.75 4.965 9 6.758 13.964 4.008 35.356-19.594 77.02-27.434 117.32-22.055 41.614 5.547 79.34 24.215 109.106 53.98 26.692 26.692 44.992 61.134 52.125 98.204 6.973 36.258 3.235 74.34-10.781 108.508-9.484 23.12-23.668 44.363-41.34 62.031-12.375 12.375-26.5 23.031-41.762 31.586-.359.2-.718.387-1.074.586-72.172 39.629-164.832 28.91-225.91-32.172-74.094-74.094-74.094-194.652 0-268.742a195.473 195.473 0 0 1 10.777-9.992C91.5 62.488 91.996 56 88.301 51.699c-3.692-4.308-10.18-4.8-14.489-1.105a213.623 213.623 0 0 0-11.925 11.05c-82.106 82.106-82.106 215.7 0 297.805 41.05 41.051 94.976 61.578 148.902 61.578 30.781 0 61.559-6.699 89.95-20.078 9.027 7.961 21.07 12.32 34.265 12.32 4.582 0 9.203-.519 13.793-1.496 30.598 26.551 50.441 56.383 69.625 85.282 20.16 30.367 39.2 59.05 68.496 80.144 21.062 15.168 40.738 22.805 58.684 22.801 14.128 0 29.246-5.012 38.875-15.766 26.87-29.996 14.097-68.214-7.032-97.562ZM335 392.727c-3.95 0-8.969-.586-13.86-2.786.325-.199.641-.414.965-.613.391-.246.778-.496 1.165-.742a210.979 210.979 0 0 0 58.805-55.54 211.626 211.626 0 0 0 6.765-10.034c.242-.383.488-.762.726-1.149.207-.332.43-.656.633-.988 3.457 7.57 3.727 16.879 1.063 26.363-.137.325-.27.653-.375.996-7.047 23.496-30.64 44.493-55.887 44.493Zm0 0" style="stroke:none;fill-rule:nonzero;fill:#000;fill-opacity:1"/></svg>