<svg xmlns="http://www.w3.org/2000/svg" version="1.0" viewBox="0 0 147.09 147.09"><path d="M320.75 332.9a72.045 72.045 0 1 1-144.09 0 72.045 72.045 0 1 1 144.09 0z" style="stroke-linejoin:round;stroke:#000;stroke-linecap:round;stroke-width:3;fill:red" transform="translate(-175.16 -259.36)"/><path d="M362.97 372.72c32.34-26.34 62.65-28.09 90.48 0" style="stroke:#000;stroke-width:3.4282;fill:none" transform="translate(-335.16 -259.36)"/><path d="M226.99 307.24a5.921 5.921 0 1 1-11.84 0 5.921 5.921 0 1 1 11.84 0z" style="stroke-linejoin:round;stroke:#000;stroke-linecap:round;stroke-width:3;fill:#000" transform="translate(-175.16 -259.36)"/><path d="M226.99 307.24a5.921 5.921 0 1 1-11.84 0 5.921 5.921 0 1 1 11.84 0z" style="stroke-linejoin:round;stroke:#000;stroke-linecap:round;stroke-width:3;fill:#000" transform="translate(-125.16 -259.36)"/></svg>