<svg xmlns="http://www.w3.org/2000/svg" width="30" height="30"><path d="M82.4 17.957c-41.279 0-64.548 21.357-64.548 65.025v450.075c0 40.88 20.878 62.236 62.236 62.236h451.988c41.278 0 62.236-20.32 62.236-62.236V82.982c0-42.633-20.958-65.025-63.511-65.025 0 0-448.482-.16-448.402 0Zm0 0" style="fill-rule:nonzero;fill:#000;fill-opacity:1;stroke-width:3.408;stroke-linecap:butt;stroke-linejoin:miter;stroke:#fff;stroke-opacity:1;stroke-miterlimit:4" transform="matrix(.04902 0 0 .04902 -.004 -.029)"/><path d="m6.328 12.645 8.832-8.832 8.832 8.832v5.828l-6.719-6.72v13.204H13V11.801l-6.684 6.68Zm0 0" style="stroke:none;fill-rule:nonzero;fill:#fff;fill-opacity:1"/></svg>