<svg xmlns="http://www.w3.org/2000/svg" width="25" height="25"><path d="M11.003 3.998H7.2c-1.121 0-1.684 0-2.104.22a2.024 2.024 0 0 0-.877.878c-.221.42-.221.983-.221 2.104v9.6c0 1.121 0 1.684.22 2.104.192.375.503.686.878.877.42.222.983.222 2.104.222h9.6c1.121 0 1.684 0 2.104-.222.375-.191.686-.502.877-.877.222-.42.222-.983.222-2.104v-4.297m-4.5-7.005 2.82 2.827m-7.56 1.913 6.652-6.653a2.014 2.014 0 0 1 1.939-.544 2.01 2.01 0 0 1 1.436 1.437 2.012 2.012 0 0 1-.555 1.938l-6.862 6.863c-.754.765-1.133 1.144-1.575 1.444a5.395 5.395 0 0 1-1.238.667c-.487.191-1.016.3-2.07.51l-.487.098.045-.327c.165-1.177.255-1.762.442-2.317.173-.488.401-.945.694-1.373.319-.483.739-.903 1.579-1.743Zm0 0" style="fill:none;stroke-width:2;stroke-linecap:round;stroke-linejoin:round;stroke:#000;stroke-opacity:1;stroke-miterlimit:4" transform="scale(1.04167)"/></svg>