<svg xmlns="http://www.w3.org/2000/svg" xmlns:xlink="http://www.w3.org/1999/xlink" width="30" height="30"><defs><clipPath id="b"><path d="M0 0h30v30H0z"/></clipPath><clipPath id="d"><path d="M0 0h30v30H0z"/></clipPath><clipPath id="f"><path d="M0 0h30v30H0z"/></clipPath><mask id="i"><g filter="url(#a)"><path d="M0 0h30v30H0z" style="fill:#000;fill-opacity:.8;stroke:none"/></g></mask><mask id="k"><g filter="url(#a)"><path d="M0 0h30v30H0z" style="fill:#000;fill-opacity:.8;stroke:none"/></g></mask><mask id="m"><g filter="url(#a)"><path d="M0 0h30v30H0z" style="fill:#000;fill-opacity:.6;stroke:none"/></g></mask><g id="h" clip-path="url(#b)"><path d="M29.422 26.965c0 1.156-6.457 2.098-14.422 2.098-7.965 0-14.422-.942-14.422-2.098 0-1.16 6.457-2.102 14.422-2.102 7.965 0 14.422.942 14.422 2.102Zm0 0" style="stroke:none;fill-rule:nonzero;fill:url(#c)"/></g><g id="j" clip-path="url(#d)"><path d="M9 4.719C6.594 4.719 4.719 6.594 4.719 9v30c0 2.406 1.875 4.281 4.281 4.281h30c2.406 0 4.281-1.875 4.281-4.281V9c0-2.406-1.875-4.281-4.281-4.281Zm0 0" style="fill:none;stroke-width:1;stroke-linecap:round;stroke-linejoin:miter;stroke:url(#e);stroke-miterlimit:4" transform="matrix(.625 0 0 .625 0 -.938)"/></g><g id="l" clip-path="url(#f)"><path d="M5.625 1.621a3.044 3.044 0 0 0-3.066 3.066V15.41c7.554-3.207 16.05-5.98 24.882-7.832v-2.89a3.044 3.044 0 0 0-3.066-3.067Zm0 0" style="stroke:none;fill-rule:nonzero;fill:url(#g)"/></g><linearGradient id="e" x1="0" x2="0" y1="4.219" y2="43.781" gradientUnits="userSpaceOnUse"><stop offset="0" style="stop-color:#fff;stop-opacity:.8"/><stop offset="1" style="stop-color:#fff;stop-opacity:0"/></linearGradient><linearGradient id="g" x1="4.094" x2="15.298" y1="-58.01" y2="33.906" gradientTransform="matrix(.625 0 0 .625 0 -.938)" gradientUnits="userSpaceOnUse"><stop offset="0" style="stop-color:#eeeeec;stop-opacity:1"/><stop offset="1" style="stop-color:#eeeeec;stop-opacity:0"/></linearGradient><radialGradient id="c" cx="24.377" cy="45.941" r="23.08" fx="24.377" fy="45.941" gradientTransform="matrix(.625 0 0 .09096 -.236 22.784)" gradientUnits="userSpaceOnUse"><stop offset="0" style="stop-color:#2e3436;stop-opacity:1"/><stop offset="1" style="stop-color:#2e3436;stop-opacity:0"/></radialGradient><filter id="a" width="100%" height="100%" x="0%" y="0%" filterUnits="objectBoundingBox"><feColorMatrix in="SourceGraphic" values="0 0 0 0 1 0 0 0 0 1 0 0 0 0 1 0 0 0 1 0"/></filter></defs><use xlink:href="#h" mask="url(#i)"/><path d="M5.625.938h18.75c2.07 0 3.75 1.68 3.75 3.75v18.75c0 2.07-1.68 3.75-3.75 3.75H5.625c-2.07 0-3.75-1.68-3.75-3.75V4.688c0-2.07 1.68-3.75 3.75-3.75Zm0 0" style="stroke:none;fill-rule:nonzero;fill:#2e3436;fill-opacity:1"/><path d="M5.625 1.621a3.044 3.044 0 0 0-3.066 3.066v18.75a3.044 3.044 0 0 0 3.066 3.067h18.75a3.044 3.044 0 0 0 3.066-3.067V4.688a3.044 3.044 0 0 0-3.066-3.066Zm0 0" style="stroke:none;fill-rule:nonzero;fill:#555753;fill-opacity:1"/><path d="M12.176 5.82a.328.328 0 0 0-.235.098.328.328 0 0 0-.097.234v4.746H7.058a.325.325 0 0 0-.292.332v5.665c0 .09.035.171.097.234a.328.328 0 0 0 .235.098h4.746v4.746c0 .09.035.172.097.234a.328.328 0 0 0 .235.098h5.664a.335.335 0 0 0 .332-.332v-4.746h4.746a.335.335 0 0 0 .332-.332V11.23a.335.335 0 0 0-.332-.332h-4.746V6.113a.325.325 0 0 0-.332-.293Zm0 0" style="stroke:none;fill-rule:nonzero;fill:#2e3436;fill-opacity:1"/><path d="M12.566 6.523v5.098H7.47v4.883h5.097v5.078h4.883v-5.078h5.078V11.62H17.45V6.523Zm0 0" style="stroke:none;fill-rule:nonzero;fill:#eeeeec;fill-opacity:1"/><use xlink:href="#j" mask="url(#k)"/><use xlink:href="#l" mask="url(#m)"/></svg>