<svg xmlns="http://www.w3.org/2000/svg" width="25" height="25"><path d="M9.172 4.001A2.998 2.998 0 0 1 12 2c1.305 0 2.419.836 2.831 2.002M20.501 6H3.5M18.832 8.501l-.457 6.897c-.18 2.654-.266 3.982-1.133 4.792-.866.81-2.193.81-4.856.81h-.772c-2.663 0-3.99 0-4.857-.81-.866-.81-.952-2.138-1.132-4.793l-.457-6.896M9.499 10.999 10 16M14.501 10.999 14 16" style="fill:none;stroke-width:1.5;stroke-linecap:round;stroke-linejoin:miter;stroke:#1c274c;stroke-opacity:1;stroke-miterlimit:4" transform="scale(1.04167)"/></svg>